<?xml version="1.0" encoding="UTF-8"?>
<svg width="82px" height="68px" viewBox="0 0 82 68" version="1.1" xmlns="http://www.w3.org/2000/svg" xmlns:xlink="http://www.w3.org/1999/xlink">
    <title>ai</title>
    <g id="页面1" stroke="none" stroke-width="1" fill="none" fill-rule="evenodd">
        <g id="1" transform="translate(-147.000000, -120.000000)" fill="#FFCD06" fill-rule="nonzero">
            <g id="编组-2" transform="translate(0.000000, -3.000000)">
                <g id="ai" transform="translate(147.000000, 123.000000)">
                    <path d="M0.546218487,37.6843398 L0.546218487,41.3156602 C0.546218487,43.0742538 1.88942901,44.5 3.54621849,44.5 C5.20300796,44.5 6.54621849,43.0742538 6.54621849,41.3156602 L6.54621849,37.6843398 C6.54621849,35.9257462 5.20300796,34.5 3.54621849,34.5 C1.88927112,34.5 0.546218487,35.9257462 0.546218487,37.6843398 Z" id="路径"></path>
                    <path d="M25.5462185,40 C25.5462185,42.4852814 27.5609371,44.5 30.0462185,44.5 C32.5314999,44.5 34.5462185,42.4852814 34.5462185,40 C34.5462185,37.5147186 32.5314999,35.5 30.0462185,35.5 C27.5609371,35.5 25.5462185,37.5147186 25.5462185,40 L25.5462185,40 Z" id="路径"></path>
                    <path d="M47.5462185,40 C47.5462185,42.4852814 49.5609371,44.5 52.0462185,44.5 C54.5314999,44.5 56.5462185,42.4852814 56.5462185,40 C56.5462185,37.5147186 54.5314999,35.5 52.0462185,35.5 C49.5609371,35.5 47.5462185,37.5147186 47.5462185,40 L47.5462185,40 Z" id="路径"></path>
                    <path d="M75.455925,37.8050049 L75.455925,41.2915009 C75.455925,42.9799581 76.8193494,44.3488427 78.5010718,44.3488427 C80.1827941,44.3488427 81.5462185,42.9799581 81.5462185,41.2915009 L81.5462185,37.8050049 C81.5462185,36.1165477 80.1827941,34.7476631 78.5010718,34.7476631 C76.8191891,34.7476631 75.455925,36.1165477 75.455925,37.8050049 L75.455925,37.8050049 Z M46.1425413,0.688071259 C43.1039,1.63005252 39.8529365,1.63005252 36.8142952,0.688071259 C35.1904307,0.199862053 33.2644555,0.658141492 32.3985119,2.1111834 C31.5311259,3.55135228 32.6276993,5.79029193 35.016697,6.53032955 C39.2264095,7.83533221 43.7302667,7.83533221 47.9399792,6.53032955 C50.328977,5.79013102 51.4255503,3.55119137 50.5581643,2.1111834 C49.692381,0.65798058 47.7664058,0.199862053 46.1425413,0.688071259 L46.1425413,0.688071259 Z M62.9531937,67.5 L20.0036429,67.5 C14.7889092,67.5 10.5462185,63.2403184 10.5462185,58.004701 L10.5462185,28.0787962 L10.5851643,28.0787962 C10.6786022,24.1613759 11.1406632,20.2548977 14.2502388,17.1330299 C17.8063291,13.5626984 22.8854736,11.5965058 28.5518505,11.5965058 C31.5343314,11.5965058 34.5993517,12.1259086 37.6616474,13.1700713 C37.9111891,13.2551941 38.3796609,13.426888 39.5570108,13.9331194 C40.7766722,14.4573731 42.1784013,14.4554422 43.4028709,13.9276484 C44.4893472,13.4592315 44.9246429,13.297836 45.1576767,13.2172187 C49.50839,11.7117193 53.9438867,11.2441069 57.9852772,11.8650691 C62.2135435,12.5148347 65.9209295,14.3363667 68.7064374,17.132869 C71.8161733,20.2550586 72.2782343,24.1615368 72.3716722,28.0787962 L72.4094961,28.0787962 L72.410618,31.1361379 L72.410618,58.0043792 C72.410618,63.2403184 68.1680876,67.5 62.9531937,67.5 Z M16.6365119,31.2381566 L16.6365119,58.004701 C16.6365119,59.868714 18.147065,61.3853165 20.0036429,61.3853165 L62.9531937,61.3853165 C64.8099318,61.3853165 66.3204849,59.868714 66.3204849,58.0045401 L66.3196835,31.1778143 C66.3143946,30.7898537 66.3110289,30.4057551 66.3078235,30.026162 C66.2708009,25.7392861 66.1639002,23.2275993 64.4002794,21.4570766 C60.5480086,17.5897002 53.9347512,16.6475562 47.1426316,18.9983302 C47.0434239,19.0327655 46.713907,19.1550592 45.8054916,19.5467208 C43.0560447,20.7316821 39.9049589,20.7344176 37.1598393,19.5544446 C36.1695255,19.1286695 35.8114803,18.9972038 35.7034578,18.9603548 C33.2731101,18.1316543 30.8669634,17.7113502 28.5520108,17.7113502 C24.4538844,17.7113502 20.9973223,19.0065367 18.5567174,21.4569157 C16.7932569,23.2272775 16.6863562,25.7389642 16.6493336,30.0258401 C16.6459679,30.4055942 16.6427625,30.7896928 16.6374736,31.1776534 L16.6365119,31.2381566 L16.6365119,31.2381566 Z" id="形状"></path>
                </g>
            </g>
        </g>
    </g>
</svg>