<?xml version="1.0" encoding="UTF-8"?>
<svg width="16px" height="13px" viewBox="0 0 16 13" version="1.1" xmlns="http://www.w3.org/2000/svg" xmlns:xlink="http://www.w3.org/1999/xlink">
    <title>拍摄</title>
    <g id="页面1" stroke="none" stroke-width="1" fill="none" fill-rule="evenodd">
        <g id="1" transform="translate(-52.000000, -364.000000)" fill="#FFFFFF" fill-rule="nonzero">
            <g id="编组-2" transform="translate(0.000000, -3.000000)">
                <g id="1-首页">
                    <g id="拍摄" transform="translate(52.000000, 367.000000)">
                        <path d="M8.00889878,3.88698554 C6.40711902,3.88698554 5.09365962,5.20044494 5.09365962,6.80222469 C5.09365962,8.40400445 6.40711902,9.71746385 8.00889878,9.71746385 C9.61067853,9.71746385 10.9241379,8.40400445 10.9241379,6.80222469 C10.9241379,5.20044494 9.61067853,3.88698554 8.00889878,3.88698554 L8.00889878,3.88698554 L8.00889878,3.88698554 Z M14.9926585,1.70856507 L11.8211346,1.70856507 C11.5648498,1.5483871 11.3085651,1.22803115 11.0202447,0.683426029 C10.6998888,0.0106785317 9.54660734,0.0106785317 9.54660734,0.0106785317 L5.8625139,0.0106785317 C5.8625139,0.0106785317 5.47808676,-0.0854282536 5.02958843,0.683426029 C4.74126808,1.19599555 4.45294772,1.5163515 4.19666296,1.70856507 L1.02513904,1.70856507 C0.448498331,1.70856507 7.81597009e-14,2.189099 7.81597009e-14,2.79777531 L7.81597009e-14,11.287208 C7.81597009e-14,11.8958843 0.448498331,12.3764182 1.02513904,12.3764182 L14.9606229,12.3764182 C15.5372636,12.3764182 15.985762,11.8958843 15.985762,11.287208 L15.985762,2.79777531 C16.0177976,2.189099 15.5692992,1.70856507 14.9926585,1.70856507 L14.9926585,1.70856507 L14.9926585,1.70856507 Z M8.00889878,10.4542825 C5.99065628,10.4542825 4.35684093,8.82046719 4.35684093,6.80222469 C4.35684093,4.7839822 5.99065628,3.15016685 8.00889878,3.15016685 C10.0271413,3.15016685 11.6609566,4.7839822 11.6609566,6.80222469 C11.628921,8.82046719 10.0271413,10.4542825 8.00889878,10.4542825 L8.00889878,10.4542825 L8.00889878,10.4542825 Z M13.2307008,3.88698554 C12.9103448,3.88698554 12.6220245,3.63070078 12.6220245,3.27830923 C12.6220245,2.95795328 12.8783092,2.66963293 13.2307008,2.66963293 C13.5510567,2.66963293 13.8393771,2.92591769 13.8393771,3.27830923 C13.8393771,3.63070078 13.5510567,3.88698554 13.2307008,3.88698554 L13.2307008,3.88698554 Z" id="形状"></path>
                    </g>
                </g>
            </g>
        </g>
    </g>
</svg>