<?xml version="1.0" encoding="UTF-8"?>
<svg width="16px" height="16px" viewBox="0 0 16 16" version="1.1" xmlns="http://www.w3.org/2000/svg" xmlns:xlink="http://www.w3.org/1999/xlink">
    <title>计算面积节点</title>
    <g id="页面1" stroke="none" stroke-width="1" fill="none" fill-rule="evenodd">
        <g id="1" transform="translate(-52.000000, -396.000000)" fill="#FFFFFF" fill-rule="nonzero">
            <g id="编组-2" transform="translate(0.000000, -3.000000)">
                <g id="计算面积节点" transform="translate(52.000000, 399.000000)">
                    <path d="M0.0104065041,13.335935 L1.34243902,13.335935 L1.34243902,14.6679675 L0.0104065041,14.6679675 L0.0104065041,13.335935 L0.0104065041,13.335935 Z M0.0104065041,14.6679675 L1.34243902,14.6679675 L1.34243902,16 L0.0104065041,16 L0.0104065041,14.6679675 L0.0104065041,14.6679675 Z M1.34243902,14.6679675 L2.67447154,14.6679675 L2.67447154,16 L1.34243902,16 L1.34243902,14.6679675 L1.34243902,14.6679675 Z M2.67447154,14.6679675 L4.00650407,14.6679675 L4.00650407,16 L2.67447154,16 L2.67447154,14.6679675 L2.67447154,14.6679675 Z M0.0104065041,12.0039024 L1.34243902,12.0039024 L1.34243902,13.335935 L0.0104065041,13.335935 L0.0104065041,12.0039024 L0.0104065041,12.0039024 Z M14.6627642,12.0039024 L15.9947967,12.0039024 L15.9947967,13.335935 L14.6627642,13.335935 L14.6627642,12.0039024 Z M11.9986992,14.6679675 L13.3307317,14.6679675 L13.3307317,16 L11.9986992,16 L11.9986992,14.6679675 Z M13.3307317,14.6679675 L14.6627642,14.6679675 L14.6627642,16 L13.3307317,16 L13.3307317,14.6679675 Z M14.6627642,14.6679675 L15.9947967,14.6679675 L15.9947967,16 L14.6627642,16 L14.6627642,14.6679675 Z M14.6627642,13.335935 L15.9947967,13.335935 L15.9947967,14.6679675 L14.6627642,14.6679675 L14.6627642,13.335935 Z M11.9986992,0.0156097561 L13.3307317,0.0156097561 L13.3307317,1.34764228 L11.9986992,1.34764228 L11.9986992,0.0156097561 Z M14.6627642,0.0156097561 L15.9947967,0.0156097561 L15.9947967,1.34764228 L14.6627642,1.34764228 L14.6627642,0.0156097561 Z M13.3307317,0.0156097561 L14.6627642,0.0156097561 L14.6627642,1.34764228 L13.3307317,1.34764228 L13.3307317,0.0156097561 Z M14.6627642,2.6796748 L15.9947967,2.6796748 L15.9947967,4.01170732 L14.6627642,4.01170732 L14.6627642,2.6796748 Z M14.6627642,1.34764228 L15.9947967,1.34764228 L15.9947967,2.6796748 L14.6627642,2.6796748 L14.6627642,1.34764228 Z M0.0104065041,0.0156097561 L1.34243902,0.0156097561 L1.34243902,1.34764228 L0.0104065041,1.34764228 L0.0104065041,0.0156097561 Z M2.67447154,0.0156097561 L4.00650407,0.0156097561 L4.00650407,1.34764228 L2.67447154,1.34764228 L2.67447154,0.0156097561 L2.67447154,0.0156097561 Z M1.34243902,0.0156097561 L2.67447154,0.0156097561 L2.67447154,1.34764228 L1.34243902,1.34764228 L1.34243902,0.0156097561 Z M0.0104065041,2.6796748 L1.34243902,2.6796748 L1.34243902,4.01170732 L0.0104065041,4.01170732 L0.0104065041,2.6796748 L0.0104065041,2.6796748 Z M0.0104065041,1.34764228 L1.34243902,1.34764228 L1.34243902,2.6796748 L0.0104065041,2.6796748 L0.0104065041,1.34764228 L0.0104065041,1.34764228 Z" id="形状"></path>
                    <path d="M1.34243902,1.34764228 L1.34243902,14.6679675 L14.6627642,14.6679675 L14.6627642,1.34764228 L1.34243902,1.34764228 Z M11.0413008,12.1001626 L4.14699187,5.20325203 L3.91284553,4.96650407 L4.96650407,3.91284553 L12.097561,11.0439024 L11.0413008,12.1001626 Z" id="形状"></path>
                </g>
            </g>
        </g>
    </g>
</svg>