<?xml version="1.0" encoding="UTF-8"?>
<svg width="16px" height="15px" viewBox="0 0 16 15" version="1.1" xmlns="http://www.w3.org/2000/svg" xmlns:xlink="http://www.w3.org/1999/xlink">
    <title>报告</title>
    <g id="页面1" stroke="none" stroke-width="1" fill="none" fill-rule="evenodd">
        <g id="1" transform="translate(-52.000000, -432.000000)" fill="#FFFFFF" fill-rule="nonzero">
            <g id="编组-2" transform="translate(0.000000, -3.000000)">
                <g id="1-首页">
                    <g id="报告" transform="translate(52.000000, 435.000000)">
                        <path d="M12.8858847,13.1912525 L12.8858847,2.13829555 C12.8750272,1.88857256 12.8315971,1.47598674 12.5710166,1.21540623 C12.3864387,1.03082837 12.1150007,0.943968191 11.7567025,0.943968191 C11.018391,0.943968191 10.6492353,1.49770179 10.6492353,2.59431146 L10.6492353,4.62466799 C10.6470234,4.88159333 10.4392872,5.08932961 10.1823618,5.09154142 L1.60491981,5.09154142 L1.60491981,12.680949 C1.60491981,13.951279 2.41923392,14.9827435 3.68956394,14.9827435 L3.90671439,14.9827435 L13.5264785,14.971886 C13.1247502,14.5701577 12.8858847,13.951279 12.8858847,13.1912525 L12.8858847,13.1912525 Z M10.269222,11.3020437 L4.23244003,11.3020437 C3.92723871,11.3005585 3.68019163,11.0535115 3.67870643,10.7483101 C3.68019163,10.4431088 3.92723871,10.1960617 4.23244003,10.1945765 L10.269222,10.1945765 C10.5744233,10.1960617 10.8214704,10.4431088 10.8229556,10.7483101 C10.8214704,11.0535115 10.5744233,11.3005585 10.269222,11.3020437 Z M10.269222,8.34879788 L4.23244003,8.34879788 C3.92723871,8.34731269 3.68019163,8.1002656 3.67870643,7.79506429 C3.68019163,7.48986297 3.92723871,7.24281588 4.23244003,7.24133069 L10.269222,7.24133069 C10.5744233,7.24281588 10.8214704,7.48986297 10.8229556,7.79506429 C10.8214704,8.1002656 10.5744233,8.34731269 10.269222,8.34879788 L10.269222,8.34879788 Z M13.8196315,13.1912525 C13.8196315,13.6038383 13.9282068,14.5810152 14.9053837,14.5810152 C15.307112,14.5810152 15.556835,14.4181524 15.7196978,14.2118595 C15.828273,14.0381392 15.9151332,13.8427038 15.9585633,13.6364109 L15.9585633,13.6146958 C15.9585633,13.5929808 15.9694208,13.5604082 15.9694208,13.5386932 C15.9802783,13.4301179 15.9911358,13.3324003 15.9911359,13.2672551 L15.9911359,10.5203022 C15.9930089,10.4362337 15.9604372,10.3550529 15.9009771,10.2955928 C15.841517,10.2361327 15.7603362,10.203561 15.6762677,10.2054341 L13.8196315,10.2054341 L13.8196315,13.1912525 L13.8196315,13.1912525 Z" id="形状"></path>
                        <path d="M0.323732278,4.16865209 L9.72634592,4.16865209 L9.72634592,2.60516899 C9.72634592,1.08511598 10.3995123,0.140511602 11.5504095,0.0427939085 C11.4395144,0.0212015702 11.3268041,0.0102941182 11.2138264,0.0102213439 L1.69177999,0.0102213439 C0.768890656,0.0102213439 0.00886414314,0.705102712 0.00886414314,1.56284692 L0.00886414314,3.92978661 C0.00886414314,4.03836183 0.139154402,4.16865209 0.323732278,4.16865209 Z" id="路径"></path>
                    </g>
                </g>
            </g>
        </g>
    </g>
</svg>