<?xml version="1.0" encoding="UTF-8"?>
<svg width="44px" height="44px" viewBox="0 0 44 44" version="1.1" xmlns="http://www.w3.org/2000/svg" xmlns:xlink="http://www.w3.org/1999/xlink">
    <title>挂断 (1)</title>
    <g id="页面1" stroke="none" stroke-width="1" fill="none" fill-rule="evenodd">
        <g id="4" transform="translate(-32.000000, -593.000000)" fill="#FFCD06" fill-rule="nonzero">
            <g id="编组-6">
                <g id="Group-4-Copy复制-2">
                    <g id="Group-2" transform="translate(0.000000, -1.000000)">
                        <g id="挂断-(1)" transform="translate(32.000000, 594.000000)">
                            <path d="M22,0 C9.8497355,0 0,9.8497355 0,22 C0,34.1502645 9.8497355,44 22,44 C34.1502645,44 44,34.1502645 44,22 C44,16.1652372 41.6821495,10.5694511 37.5563492,6.44365081 C33.4305489,2.31785049 27.8347628,0 22,0 Z M32.460164,26.978338 C28.3057153,26.5448538 28.5641904,24.9913107 28.5534206,22.9019704 C28.5534206,21.4426631 25.1770897,21.1357239 21.9892302,21.1518786 C18.8013707,21.1680333 15.4331171,21.5072819 15.438502,22.9665892 C15.438502,25.0559295 15.7077469,26.6094725 11.5694529,27.0806511 C7.43115897,27.5518296 7.94003182,24.5470567 7.92926204,22.5223351 C7.92926204,20.1852894 13.3626239,16.913964 21.9676906,16.8681924 C30.5727573,16.8224207 36.0438135,20.0479745 36.0572757,22.3823277 C36.0788153,24.4124342 36.6173051,27.4118223 32.460164,26.978338 L32.460164,26.978338 Z" id="形状"></path>
                        </g>
                    </g>
                </g>
            </g>
        </g>
    </g>
</svg>