<?xml version="1.0" encoding="UTF-8"?>
<svg width="69px" height="69px" viewBox="0 0 69 69" version="1.1" xmlns="http://www.w3.org/2000/svg" xmlns:xlink="http://www.w3.org/1999/xlink">
    <title>种草_视频播放</title>
    <g id="页面1" stroke="none" stroke-width="1" fill="none" fill-rule="evenodd">
        <g id="6" transform="translate(-153.000000, -366.000000)" fill-rule="nonzero">
            <g id="种草_视频播放" transform="translate(153.000000, 366.000000)">
                <path d="M34.5,0 C53.6313281,0 69,15.3686719 69,34.5 C69,53.6313281 53.6313281,69 34.5,69 C15.3686719,69 0,53.6313281 0,34.5 C0,15.3686719 15.3686719,0 34.5,0 Z M49.3975313,35.9112656 C50.1818672,35.4406641 50.4956016,34.5 49.8681328,33.8725313 C49.7118047,33.5593359 49.5543984,33.4024688 49.2406641,33.2456016 L27.4436719,20.7 C26.9863178,20.5431893 26.4897603,20.5431893 26.0324063,20.7 C25.7186719,20.7 25.4049375,21.0137344 25.2480703,21.3274687 C25.0917422,21.4837969 25.0917422,21.6406641 25.0917422,21.9543984 L25.0917422,47.0456016 C25.0917422,47.3593359 25.0917422,47.6725313 25.2480703,47.8293984 C25.7186719,48.6137344 26.659875,48.9274688 27.4436719,48.4568672 L49.3980703,35.9112656 L49.3975313,35.9112656 Z" id="形状" fill="#4C4C4C" opacity="0.501"></path>
                <path d="M49.1986125,36.2767837 L27.3415588,48.7797533 C26.5612181,49.2487557 25.6241652,48.9355502 25.1556388,48.1544168 C25,47.9986199 25,47.6859516 25,47.3732834 L25,22.3673442 C25,22.0546759 25,21.898879 25.1556388,21.7425449 C25.3118143,21.4298766 25.6241652,21.1172084 25.9365162,21.1172084 C26.3918535,20.9609305 26.8862215,20.9609305 27.3415588,21.1172084 L49.0429737,33.620178 C49.3553247,33.7759749 49.5115002,33.9328462 49.6676757,34.2449773 C50.2923776,34.8703138 49.9800266,35.8083185 49.1991492,36.2767837 L49.1986125,36.2767837 Z" id="路径" fill="#FFFFFF" opacity="0.8"></path>
            </g>
        </g>
    </g>
</svg>