<?xml version="1.0" encoding="UTF-8"?>
<svg width="245px" height="243px" viewBox="0 0 245 243" version="1.1" xmlns="http://www.w3.org/2000/svg" xmlns:xlink="http://www.w3.org/1999/xlink">
    <title>编组 2</title>
    <g id="页面1" stroke="none" stroke-width="1" fill="none" fill-rule="evenodd">
        <g id="B端HR-收到简要面试结果" transform="translate(-66.000000, -297.000000)">
            <g id="编组-2" transform="translate(67.000000, 297.000000)">
                <polygon id="多边形" stroke="#383A4E" transform="translate(121.500000, 121.500000) rotate(90.000000) translate(-121.500000, -121.500000) " points="121.5 22 207.669528 71.75 207.669528 171.25 121.5 221 35.3304723 171.25 35.3304723 71.75"></polygon>
                <polygon id="多边形" stroke="#383A4E" transform="translate(121.500000, 121.500000) rotate(90.000000) translate(-121.500000, -121.500000) " points="121.5 0 226.722087 60.75 226.722087 182.25 121.5 243 16.2779134 182.25 16.2779134 60.75"></polygon>
                <polygon id="多边形" stroke="#383A4E" transform="translate(121.500000, 121.500000) rotate(90.000000) translate(-121.500000, -121.500000) " points="121.5 63 172.162486 92.25 172.162486 150.75 121.5 180 70.8375139 150.75 70.8375139 92.25"></polygon>
                <polygon id="多边形" stroke="#383A4E" transform="translate(121.500000, 121.500000) rotate(90.000000) translate(-121.500000, -121.500000) " points="121.5 46 186.884918 83.75 186.884918 159.25 121.5 197 56.115082 159.25 56.115082 83.75"></polygon>
                <polygon id="多边形复制" stroke="#383A4E" transform="translate(122.000000, 122.000000) rotate(90.000000) translate(-122.000000, -122.000000) " points="122 83 155.774991 102.5 155.774991 141.5 122 161 88.2250093 141.5 88.2250093 102.5"></polygon>
                <line x1="182.25" y1="226.722087" x2="60.75" y2="16.2779134" id="直线" stroke="#383A4E" stroke-linecap="square"></line>
                <line x1="182.25" y1="16.2779134" x2="60.75" y2="226.722087" id="直线-2" stroke="#383A4E" stroke-linecap="square"></line>
                <line x1="0" y1="122" x2="243" y2="121.5" id="直线-3" stroke="#383A4E" stroke-linecap="square"></line>
                <circle id="椭圆形" fill="#484C79" cx="72" cy="35" r="4"></circle>
                <circle id="椭圆形复制-5" fill="#484C79" cx="226" cy="123" r="4"></circle>
                <circle id="椭圆形复制" fill="#484C79" cx="42" cy="122" r="4"></circle>
                <circle id="椭圆形复制-2" fill="#484C79" cx="161" cy="55" r="4"></circle>
                <circle id="椭圆形复制-3" fill="#484C79" cx="176" cy="217" r="4"></circle>
                <polygon id="路径-2" stroke="#484C79" fill-opacity="0.520378059" fill="#3B4079" points="73 36.5 42 122 73 207 176 217 225.668881 122 161 55"></polygon>
                <circle id="椭圆形复制-4" fill="#484C79" cx="73" cy="207" r="4"></circle>
            </g>
        </g>
    </g>
</svg>